Coordinates
version=1
nRows=18
nColumns=34
inDegrees=no

Units are S.I. units (second, meters, Newtons, ...)
If the header above contains a line with 'inDegrees', this indicates whether rotational values are in degrees (yes) or radians (no).

endheader
time	pelvis_tilt	pelvis_list	pelvis_rotation	pelvis_tx	pelvis_ty	pelvis_tz	hip_flexion_r	hip_adduction_r	hip_rotation_r	knee_angle_r	ankle_angle_r	subtalar_angle_r	mtp_angle_r	hip_flexion_l	hip_adduction_l	hip_rotation_l	knee_angle_l	ankle_angle_l	subtalar_angle_l	mtp_angle_l	lumbar_extension	lumbar_bending	lumbar_rotation	arm_flex_r	arm_add_r	arm_rot_r	elbow_flex_r	pro_sup_r	arm_flex_l	arm_add_l	arm_rot_l	elbow_flex_l	pro_sup_l
0.9	-0.170386	0.27351	0.0311416	0.797746	0.919169	-0.190978	0.104386	-0.37057	-0.114084	0.983269	0.00346691	0.0872325	-0.102174	0.318816	0.336064	-0.110726	0.0276369	0.0819356	0.265694	-0.100571	0.112247	-0.492526	0.204475	-0.133034	-0.104611	0.066394	0.668312	1.55033	-0.263279	-0.235064	-0.562905	0.565029	2.00554
0.91	-0.167342	0.276903	0.0283777	0.806029	0.920263	-0.191128	0.131309	-0.377479	-0.0963884	1.02167	0.0158072	0.0993081	-0.102179	0.299895	0.339547	-0.10491	0.0191651	0.0855291	0.269434	-0.100547	0.108434	-0.501951	0.204018	-0.130548	-0.103849	0.0760721	0.66805	1.55636	-0.256216	-0.236273	-0.556684	0.568902	1.97867
0.92	-0.163413	0.279105	0.0264024	0.814066	0.921408	-0.191289	0.15698	-0.382496	-0.0804858	1.05639	0.0313206	0.109106	-0.102183	0.281459	0.341977	-0.0996309	0.0137721	0.0900808	0.273486	-0.100523	0.102573	-0.510114	0.201838	-0.128435	-0.102924	0.0839638	0.668432	1.56202	-0.248271	-0.237843	-0.548906	0.572956	1.94953
0.93	-0.158762	0.280144	0.0252295	0.821871	0.922602	-0.191459	0.181479	-0.385636	-0.0663562	1.08734	0.0484898	0.114735	-0.102188	0.263517	0.343394	-0.0948025	0.0109565	0.095517	0.277718	-0.100499	0.0948739	-0.517058	0.198072	-0.126791	-0.101879	0.0902727	0.669386	1.56746	-0.239443	-0.239747	-0.539986	0.577252	1.91929
0.94	-0.153551	0.28006	0.0247876	0.829464	0.923837	-0.19163	0.204937	-0.386926	-0.0538524	1.11451	0.0660613	0.114928	-0.102192	0.246014	0.343817	-0.0903165	0.010051	0.101707	0.28204	-0.100475	0.0856263	-0.522819	0.192957	-0.125653	-0.100767	0.0952591	0.670767	1.57304	-0.229757	-0.241944	-0.530258	0.581896	1.88864
0.95	-0.147945	0.278911	0.0249558	0.836866	0.9251	-0.191791	0.227517	-0.386407	-0.0427313	1.13788	0.0831585	0.109132	-0.102196	0.228878	0.343251	-0.0861121	0.0103674	0.108514	0.286485	-0.100451	0.0751802	-0.527431	0.186781	-0.125012	-0.0996335	0.0991982	0.672387	1.57921	-0.219269	-0.244386	-0.519977	0.58701	1.85781
0.96	-0.142121	0.276767	0.0256002	0.844099	0.926376	-0.191933	0.249401	-0.384133	-0.0326954	1.15749	0.099313	0.0974837	-0.102201	0.21206	0.341696	-0.0822102	0.0113024	0.115832	0.291238	-0.100427	0.0639184	-0.53094	0.179844	-0.124817	-0.0985052	0.102351	0.674041	1.58639	-0.208064	-0.247024	-0.509337	0.592697	1.82676
0.97	-0.136262	0.273721	0.0266039	0.85118	0.927647	-0.192047	0.270781	-0.380192	-0.023433	1.17338	0.114423	0.0807048	-0.102205	0.195561	0.339162	-0.0787133	0.012396	0.123585	0.296606	-0.100403	0.0522314	-0.53342	0.172411	-0.124994	-0.0973863	0.104951	0.675544	1.59482	-0.196255	-0.249814	-0.498505	0.599004	1.79557
0.98	-0.130555	0.26989	0.027884	0.858126	0.928897	-0.19213	0.291842	-0.374712	-0.0146514	1.18559	0.128659	0.0599491	-0.10221	0.179435	0.335693	-0.0757787	0.0133481	0.131727	0.302957	-0.100379	0.0404883	-0.534977	0.164687	-0.125451	-0.0962615	0.107206	0.676742	1.60442	-0.183976	-0.252721	-0.487653	0.605892	1.76472
0.99	-0.125173	0.265419	0.0293934	0.864954	0.930106	-0.192178	0.312742	-0.367875	-0.00609913	1.19422	0.142345	0.0366265	-0.102214	0.163769	0.331367	-0.0735776	0.0140045	0.140212	0.310629	-0.100355	0.0290071	-0.53576	0.15681	-0.126096	-0.095103	0.109303	0.677532	1.6147	-0.171376	-0.255721	-0.476983	0.613222	1.73535
1	-0.120248	0.260477	0.0311117	0.871678	0.93126	-0.192194	0.333581	-0.359912	0.00241971	1.19934	0.155835	0.0122367	-0.102219	0.148658	0.326309	-0.0722544	0.0143253	0.148981	0.31986	-0.100331	0.0180234	-0.535947	0.14885	-0.126838	-0.0938808	0.111413	0.67787	1.62482	-0.158606	-0.258797	-0.466724	0.620762	1.70935
1.01	-0.115854	0.255242	0.0330305	0.878314	0.932351	-0.192179	0.354377	-0.351094	0.0110384	1.20105	0.169413	-0.0117758	-0.102223	0.13417	0.320676	-0.071895	0.0143465	0.157948	0.33073	-0.100307	0.00766579	-0.535734	0.140822	-0.127595	-0.0925723	0.113686	0.677764	1.63361	-0.14581	-0.261939	-0.457104	0.628214	1.68911
1.02	-0.11198	0.249886	0.0351408	0.884874	0.933377	-0.192137	0.375044	-0.341704	0.0198221	1.19945	0.183229	-0.0341372	-0.102228	0.120323	0.314636	-0.0725093	0.0141447	0.167003	0.34315	-0.100282	-0.00205682	-0.535308	0.132708	-0.128304	-0.0911692	0.116239	0.677268	1.63988	-0.133108	-0.265147	-0.448311	0.635272	1.67706
1.03	-0.108536	0.244554	0.0374283	0.891369	0.934341	-0.192073	0.395396	-0.332011	0.0287622	1.19463	0.197281	-0.0538288	-0.102232	0.10708	0.308346	-0.0740264	0.0138075	0.176033	0.356881	-0.100258	-0.0112483	-0.534822	0.124469	-0.128917	-0.0896807	0.119138	0.676458	1.64262	-0.120594	-0.268429	-0.440427	0.641692	1.67503
1.04	-0.105375	0.239356	0.0398783	0.897803	0.935254	-0.191991	0.415177	-0.32225	0.0377726	1.18666	0.211437	-0.0701179	-0.102236	0.094373	0.301932	-0.0762881	0.0134139	0.184932	0.371548	-0.100234	-0.0200925	-0.534372	0.116058	-0.129408	-0.0881338	0.122384	0.675408	1.64136	-0.108334	-0.271801	-0.433392	0.647374	1.68353
1.05	-0.102342	0.234368	0.0424837	0.90418	0.936124	-0.191901	0.434118	-0.312629	0.0466925	1.17563	0.225474	-0.082549	-0.102241	0.0821388	0.295489	-0.0790526	0.0130245	0.193612	0.386676	-0.10021	-0.0287943	-0.534	0.107425	-0.12977	-0.0865727	0.125909	0.674153	1.63645	-0.0963799	-0.275285	-0.426983	0.65243	1.70113
1.06	-0.099338	0.229626	0.0452583	0.9105	0.936955	-0.191812	0.452026	-0.303337	0.0552962	1.16166	0.239128	-0.0909172	-0.102245	0.0703736	0.28909	-0.0820124	0.0126772	0.202016	0.401728	-0.100186	-0.0375017	-0.533705	0.0985243	-0.130014	-0.0850558	0.129599	0.672673	1.62911	-0.0847838	-0.2789	-0.420842	0.657213	1.72432
1.07	-0.0963721	0.225142	0.0482474	0.916761	0.937745	-0.191738	0.468844	-0.294547	0.0633072	1.14488	0.25213	-0.0952331	-0.10225	0.0591679	0.282792	-0.0848269	0.0123898	0.210131	0.416162	-0.100162	-0.0462431	-0.533449	0.0893093	-0.130164	-0.0836523	0.133324	0.670895	1.62124	-0.0736131	-0.282659	-0.414557	0.662248	1.74816
